<svg width="32" height="32" viewBox="0 0 32 32" fill="none" xmlns="http://www.w3.org/2000/svg">
  <rect width="32" height="32" rx="8" fill="#6366F1"/>
  <path d="M16 8C11.5817 8 8 11.5817 8 16C8 20.4183 11.5817 24 16 24C20.4183 24 24 20.4183 24 16C24 11.5817 20.4183 8 16 8ZM16 22C12.6863 22 10 19.3137 10 16C10 12.6863 12.6863 10 16 10C19.3137 10 22 12.6863 22 16C22 19.3137 19.3137 22 16 22Z" fill="white"/>
  <path d="M16 12C16.5523 12 17 12.4477 17 13V16H20C20.5523 16 21 16.4477 21 17C21 17.5523 20.5523 18 20 18H16C15.4477 18 15 17.5523 15 17V13C15 12.4477 15.4477 12 16 12Z" fill="white"/>
</svg>
